<mxfile host="app.diagrams.net" modified="2024-05-19T11:50:05.004Z" agent="Mozilla/5.0 (Macintosh; Intel Mac OS X 10_15_7) AppleWebKit/537.36 (KHTML, like Gecko) Chrome/124.0.0.0 Safari/537.36" etag="nAJdC5C1Cewnm9n_LT0Y" version="24.4.4" type="github">
  <diagram name="Trang-1" id="7K-kxbTCRzlrdq10xeqY">
    <mxGraphModel dx="1194" dy="1809" grid="1" gridSize="10" guides="1" tooltips="1" connect="1" arrows="1" fold="1" page="1" pageScale="1" pageWidth="827" pageHeight="1169" math="0" shadow="0">
      <root>
        <mxCell id="0" />
        <mxCell id="1" parent="0" />
        <mxCell id="ggNUMbUd0haIdgOZL4_7-4" value="" style="edgeStyle=orthogonalEdgeStyle;rounded=0;orthogonalLoop=1;jettySize=auto;html=1;" edge="1" parent="1" source="ggNUMbUd0haIdgOZL4_7-2" target="ggNUMbUd0haIdgOZL4_7-3">
          <mxGeometry relative="1" as="geometry" />
        </mxCell>
        <mxCell id="ggNUMbUd0haIdgOZL4_7-2" value="User" style="rounded=0;whiteSpace=wrap;html=1;" vertex="1" parent="1">
          <mxGeometry x="350" y="300" width="120" height="60" as="geometry" />
        </mxCell>
        <mxCell id="ggNUMbUd0haIdgOZL4_7-6" value="" style="edgeStyle=orthogonalEdgeStyle;rounded=0;orthogonalLoop=1;jettySize=auto;html=1;" edge="1" parent="1" source="ggNUMbUd0haIdgOZL4_7-3" target="ggNUMbUd0haIdgOZL4_7-5">
          <mxGeometry relative="1" as="geometry" />
        </mxCell>
        <mxCell id="ggNUMbUd0haIdgOZL4_7-14" value="" style="edgeStyle=orthogonalEdgeStyle;rounded=0;orthogonalLoop=1;jettySize=auto;html=1;" edge="1" parent="1" source="ggNUMbUd0haIdgOZL4_7-3" target="ggNUMbUd0haIdgOZL4_7-13">
          <mxGeometry relative="1" as="geometry" />
        </mxCell>
        <mxCell id="ggNUMbUd0haIdgOZL4_7-3" value="Has" style="rhombus;whiteSpace=wrap;html=1;rounded=0;" vertex="1" parent="1">
          <mxGeometry x="370" y="150" width="80" height="80" as="geometry" />
        </mxCell>
        <mxCell id="ggNUMbUd0haIdgOZL4_7-17" value="" style="edgeStyle=orthogonalEdgeStyle;rounded=0;orthogonalLoop=1;jettySize=auto;html=1;" edge="1" parent="1" source="ggNUMbUd0haIdgOZL4_7-5" target="ggNUMbUd0haIdgOZL4_7-16">
          <mxGeometry relative="1" as="geometry" />
        </mxCell>
        <mxCell id="ggNUMbUd0haIdgOZL4_7-5" value="Login" style="whiteSpace=wrap;html=1;rounded=0;" vertex="1" parent="1">
          <mxGeometry x="350" width="120" height="60" as="geometry" />
        </mxCell>
        <mxCell id="ggNUMbUd0haIdgOZL4_7-7" value="Login with Email" style="ellipse;whiteSpace=wrap;html=1;" vertex="1" parent="1">
          <mxGeometry x="250" y="-90" width="120" height="80" as="geometry" />
        </mxCell>
        <mxCell id="ggNUMbUd0haIdgOZL4_7-10" value="Login By Google&amp;nbsp;" style="ellipse;whiteSpace=wrap;html=1;" vertex="1" parent="1">
          <mxGeometry x="460" y="-100" width="120" height="80" as="geometry" />
        </mxCell>
        <mxCell id="ggNUMbUd0haIdgOZL4_7-11" value="" style="endArrow=none;html=1;rounded=0;" edge="1" parent="1" source="ggNUMbUd0haIdgOZL4_7-5" target="ggNUMbUd0haIdgOZL4_7-7">
          <mxGeometry width="50" height="50" relative="1" as="geometry">
            <mxPoint x="390" y="160" as="sourcePoint" />
            <mxPoint x="440" y="110" as="targetPoint" />
          </mxGeometry>
        </mxCell>
        <mxCell id="ggNUMbUd0haIdgOZL4_7-12" value="" style="endArrow=none;html=1;rounded=0;exitX=0.833;exitY=0;exitDx=0;exitDy=0;exitPerimeter=0;" edge="1" parent="1" source="ggNUMbUd0haIdgOZL4_7-5" target="ggNUMbUd0haIdgOZL4_7-10">
          <mxGeometry width="50" height="50" relative="1" as="geometry">
            <mxPoint x="390" y="160" as="sourcePoint" />
            <mxPoint x="440" y="110" as="targetPoint" />
          </mxGeometry>
        </mxCell>
        <mxCell id="ggNUMbUd0haIdgOZL4_7-13" value="Register" style="rounded=0;whiteSpace=wrap;html=1;" vertex="1" parent="1">
          <mxGeometry x="150" y="160" width="120" height="60" as="geometry" />
        </mxCell>
        <mxCell id="ggNUMbUd0haIdgOZL4_7-19" value="" style="edgeStyle=orthogonalEdgeStyle;rounded=0;orthogonalLoop=1;jettySize=auto;html=1;" edge="1" parent="1" source="ggNUMbUd0haIdgOZL4_7-16" target="ggNUMbUd0haIdgOZL4_7-18">
          <mxGeometry relative="1" as="geometry" />
        </mxCell>
        <mxCell id="ggNUMbUd0haIdgOZL4_7-16" value="True" style="rhombus;whiteSpace=wrap;html=1;rounded=0;" vertex="1" parent="1">
          <mxGeometry x="570" y="-10" width="80" height="80" as="geometry" />
        </mxCell>
        <mxCell id="ggNUMbUd0haIdgOZL4_7-18" value="Home" style="whiteSpace=wrap;html=1;rounded=0;" vertex="1" parent="1">
          <mxGeometry x="710" width="120" height="60" as="geometry" />
        </mxCell>
      </root>
    </mxGraphModel>
  </diagram>
</mxfile>
